# xmcd
#
# Track frame offsets:
#	150
#	22535
#	45615
#	68313
#	92814
#	117195
#	137940
#	162317
#
# Disc length: 2460 seconds
#
# Revision: 0
# Processed by: cddbd v1.5.2PL0 Copyright (c) Steve Scherf et al.
# Submitted via: EZCDAudioConverter 2.0.7.1
#
DISCID=5a099a08
DTITLE=Aksondona - La Confirmation
DYEAR=1900
DGENRE=
TTITLE0=Offo
TTITLE1=Reconciliation
TTITLE2=Le Ronin
TTITLE3=Adjigbe Iwô
TTITLE4=Baba Ya
TTITLE5=Lô Elehi Ohou
TTITLE6=Remix Baba Ya
TTITLE7=Remix Offo
EXTD=
EXTT0=
EXTT1=
EXTT2=
EXTT3=
EXTT4=
EXTT5=
EXTT6=
EXTT7=
PLAYORDER=
